<svg height="461" viewBox="0 0 310 461" width="310" xmlns="http://www.w3.org/2000/svg"><g fill="#fff" fill-rule="evenodd"><path d="m186.476 0c5.451381.398882 9.146148 2.214444 13 6 2.545667 4.5822 3.470338 8.809312 4 14 .496289-.337734.992578-.675469 1.503906-1.023438.679336-.446015 1.358672-.892031 2.058594-1.351562.661289-.440859 1.322578-.881719 2.003906-1.335938 5.817911-3.081718 11.497585-3.630346 17.933594-3.601562 1.080879-.02417 1.080879-.02417 2.183594-.048828 6.316538-.005711 11.591877 1.646702 16.691406 5.548828 2.90335 3.110732 3.091296 4.628745 3.285156 8.777344.409894 2.454651 1.273984 3.560798 2.839844 5.472656 3.073089 3.872447 3.626252 7.683748 3.5 12.5625-.234609.676758-.469219 1.353516-.710938 2.050781-.09539.643242-.190781 1.286485-.289062 1.949219 1.457142 1.87486 1.457142 1.87486 3.5 3.5 2.03125 1.71875 2.03125 1.71875 3.5 3.5-.21875 2.027344-.21875 2.027344-1 4-1.721655 5.272569-2.290251 9.991792-2.460938 15.546875-.539062 2.453125-.539062 2.453125-2.378906 4.265625-5.226054 2.872912-12.427767.915422-18.160156.1875-5.1858 11.284134-5.1858 11.284134-4.204346 23.329834 1.129635 2.525715 2.354017 4.971364 3.641846 7.420166.674099 1.321611.674099 1.321611 1.361816 2.669922 3.234375 6.176056 6.932653 11.407904 11.290528 16.841797 3.160123 4.530155 4.530786 9.441805 5.910156 14.738281.414849 1.4172.831174 2.83397 1.25 4.25.2475.9075.495 1.815.75 2.75 10.457056-4.566853 19.28549-13.342798 25-23 .502734-.64582 1.005469-1.291641 1.523438-1.957031 4.699453-6.581832 3.844387-13.789195 3.554687-21.519532-.137895-3.977079.229122-7.608334.921875-11.523437l1.75-.375c2.27928-.536551 2.27928-.536551 4.25-1.75 2-.875 2-.875 4.1875-.6875l1.8125.8125c.33.99.66 1.98 1 3h3c.846603 1.387825 1.676753 2.785694 2.5 4.1875.696094 1.165957.696094 1.165957 1.40625 2.355469 1.250722 2.809658 1.487174 4.413919 1.09375 7.457031-1.136719 2.464844-1.136719 2.464844-2.6875 4.9375-.498867.813398-.997734 1.626797-1.511719 2.464844-1.800781 2.597656-1.800781 2.597656-4.277343 5.457031-2.698044 3.180942-4.459714 6.689636-6.210938 10.453125-2.997938 6.204455-6.21863 12.233037-9.6875 18.1875-.428855.748059-.85771 1.496118-1.299561 2.266846-1.049283 1.780621-2.179975 3.512829-3.325439 5.233154h-2c-.246211.71543-.492422 1.430859-.746094 2.167969-3.655744 8.256743-11.69268 16.89678-19.253906 21.832031-2.984375.992187-2.984375.992187-6 1-2.378906-1.84375-2.378906-1.84375-4.5625-4.5-.763125-.915234-1.52625-1.830469-2.3125-2.773438-2.48186-3.184445-4.868635-6.378407-7.125-9.726562-5.333618 2.207014-7.195082 6.062906-9.339844 11.21875-.423457 1.015781-.846914 2.031562-1.283203 3.078125-.433769 1.057031-.867539 2.114062-1.314453 3.203125-.644854 1.539141-.644854 1.539141-1.302734 3.109375-5.745848 12.321044-5.745848 12.321044-7.697266 25.453125-.078534 4.947637-1.78687 8.097551-4.066406 12.421875-1.165452 2.398545-1.165452 2.398545-.816406 4.652344 4.108744 9.33272 17.211266 16.434236 25.242187 22.417969 13.786806 10.38187 26.118973 22.714795 36.578125 36.445312.523359.644531 1.046719 1.289062 1.585938 1.953125l.315995.398419.631845.80038c6.524436 8.295546 12.831112 17.375709 11.98966 28.285576-1.016953 4.978516-3.293987 7.48673-7.023438 10.75-8.928126 4.623494-18.924717 5.35687-28.8125 5.9375-1.107949.073477-2.215898.146953-3.357422.222656-2.271694.149609-4.543767.293567-6.816162.432129-2.385685.14951-4.77064.311058-7.154785.483399-7.717895.555215-15.407684.871565-23.143555 1.027343-12.943567.260767-25.546323.823851-38.215576 3.709473-1.126641.250078-2.253281.500156-3.414062.757812-6.009269 1.36347-6.009269 1.36347-10.585938 5.242188-.2475.680625-.495 1.36125-.75 2.0625-1.25 1.9375-1.25 1.9375-4.410156 2.730469-4.37577 1.156445-7.183725 3.498146-10.527344 6.457031-.554941.465352-1.109883.930703-1.681641 1.410156-5.437102 4.693623-8.660478 9.583869-10.693359 16.527344-1.924402 6.566094-1.924402 6.566094-4.9375 8.8125-2.5.125-2.5.125-5-1-6.679117-12.881155-5.230377-28.643247-2.700054-43.372245l.219369-1.259864c.812861-4.609556 1.71267-9.106022 2.480685-13.367891-8.691964 5.740213-15.641824 11.172928-21.827148 19.646973-7.724344 10.355355-17.448982 19.532752-27.676758 27.380371-9.204871 7.274584-17.094135 15.078719-23.496094 24.972656-.452461.635508-.904922 1.271016-1.371094 1.925781-2.724038 4.100196-2.955673 7.315291-2.574218 12.058594-.051374 1.893466-.054487 2.008221-1.712633 4.502112l-.342055.513513c1.98.33 3.96.66 6 1-.33.99-.66 1.98-1 3h-3l3 5c-2.959501-1.374054-5.414954-3.017769-8-5-.087513 3.228994-.140561 6.457681-.1875 9.6875-.025137.912012-.050273 1.824023-.076172 2.763672-.0557 5.105821.086533 8.320981 3.263672 12.548828v2l3.375.875c3.625 1.125 3.625 1.125 5.625 3.125.125 3.625.125 3.625 0 7-21.458189.665179-21.458189.665179-29.75-5.5625-4.065445-3.823565-5.972793-8.423763-8.25-13.4375-.95217-1.92461-1.922405-3.839429-2.894775-5.753906-1.390841-2.745859-2.752807-5.505699-4.116455-8.265137-.927812-1.85883-1.879481-3.703417-2.836426-5.547363-3.351183-6.710287-5.069688-11.907974-4.152344-19.433594.804375-.12375 1.60875-.2475 2.4375-.375l2.5625-.625 1-2c2.741466-1.082467 5.457883-2.067756 8.25-3 1.526348-.519936 3.052397-1.040748 4.578125-1.5625 1.085713-.369316 1.085713-.369316 2.193359-.746094 2.357332-.823786 4.667328-1.746687 6.978516-2.691406.99-.33 1.98-.66 3-1 .721098-1.304699 1.374443-2.646892 2-4 1.398896-2.118577 2.81568-4.218244 4.25-6.3125 4.524069-6.676855 8.718064-13.527436 12.875-20.4375 10.815207-17.841009 22.500134-33.668784 40.851562-44.320313 7.504983-4.790001 10.730438-11.393902 14.835938-19.054687 1.319361-2.425265 2.647095-4.845887 3.976562-7.265625.340872-.621439.681743-1.242878 1.032944-1.883148 3.82364-6.94458 7.826857-13.78009 11.865494-20.601227.339477-.577037.678953-1.154073 1.028717-1.748596.969162-1.646259 1.944717-3.28875 2.920502-4.931092.553894-.93312 1.107788-1.86624 1.678467-2.827636 1.684814-2.617676 1.684814-2.617676 3.838378-5.189697 1.878243-2.469804 2.413525-3.699864 2.752686-6.720948.101514-.790356.203027-1.580713.307617-2.395019.141636-1.237259.141636-1.237259.286133-2.499512 2.095763-15.155522 7.391493-25.175117 19.5-34.8125-.277148-.605859-.554297-1.211719-.839844-1.835938-1.891532-4.375431-3.321529-8.057621-3.410156-12.851562-.766081-10.929415-9.551429-21.693834-15.028076-30.897949-4.301686-7.285635-8.111999-14.765779-11.721924-22.414551-.304863-.636313-.609727-1.272627-.923828-1.928223-6.380326-13.432446-6.380326-13.432446-5.076172-20.071777 2.735075-5.079425 5.382059-6.353756 10.8125-8.125 1.059609-.310664 2.119219-.621328 3.210938-.941406 2.551618-.800311 4.600914-1.691872 6.914062-2.996094 7.184957-3.778424 15.353823-4.945783 23.375-5.25 5.246744-.329638 7.712996-1.719761 11.609375-5.125 3.864929-2.905962 8.50984-4.12338 13.078125-5.5625.99-.33 1.98-.66 3-1 1.335257-.079735 2.674121-.107713 4.011719-.097656 1.135986.004834 1.135986.004834 2.294922.009765 1.178525.012569 1.178525.012569 2.380859.025391.797285.004512 1.59457.009023 2.416016.013672 1.965527.011769 3.931015.029705 5.896484.048828.33-2.31.66-4.62 1-7-.496289-.340313-.992578-.680625-1.503906-1.03125-7.384358-5.268536-14.91107-11.590693-16.496094-20.96875-.224513-5.015817-.176345-9.98397 0-15h-2v6c-1.65.66-3.3 1.32-5 2 .33.928125.66 1.85625 1 2.8125 2.014002 7.172165 1.875406 15.17715-.753906 22.171875-2.394702 3.873562-6.103785 6.260992-10.246094 8.015625-2.789062.152344-2.789062.152344-5 0 .5775-.4125 1.155-.825 1.75-1.25 3.393709-2.639551 5.871245-4.613735 7.25-8.75h-2c-.20625.598125-.4125 1.19625-.625 1.8125-2.028218 3.22671-3.781494 3.836096-7.375 5.1875-3.966508.358296-7.896578.283041-11.875.1875-1.069922-.013535-2.139844-.02707-3.242188-.041016-2.628127-.035198-5.255204-.084437-7.882812-.146484-.33-.66-.66-1.32-1-2 .258261-.043043.494064-.082344.711355-.118559l.600281-.100047c1.750009-.291668 2.185321-.36422 4.688364-.781394-2.64-1.32-5.28-2.64-8-4v-2c1.073789-.048984 2.147578-.097969 3.253906-.148438 1.43622-.075096 2.872417-.150641 4.308594-.226562.704473-.030938 1.408945-.061875 2.134766-.09375 4.715691-.260776 8.806589-1.077831 13.302734-2.53125-.286724-.015745-.512008-.028116-.702448-.038574l-.342304-.018797c-.051935-.002852-.101968-.005599-.151085-.008296l-.291591-.016013c-.296359-.016274-.630664-.034631-1.215697-.066758-1.170469-.074765-2.340937-.149531-3.546875-.226562-1.160156-.069609-2.320312-.139219-3.515625-.210938-2.941318-.376545-4.733865-.891474-7.234375-2.414062v-1c.675469-.132773 1.350937-.265547 2.046875-.402344.892031-.176601 1.784063-.353203 2.703125-.535156.881719-.174023 1.763438-.348047 2.671875-.527344 2.210476-.458841 4.393246-.968517 6.578125-1.535156.33-1.32.66-2.64 1-4-1.206563.7425-1.206563.7425-2.4375 1.5-5.63772 2.373777-10.86093 2.419677-16.5625.125-3-1.625-3-1.625-4-3.625 1.428926.087012 1.428926.087012 2.886719.175781 7.604216.44544 7.604216.44544 14.488281-2.238281 2.040492-3.688582 2.219559-5.775588 1.625-9.9375-.740566-1.150488-.740566-1.150488-1.496094-2.324219-2.757438-4.906091-2.319881-10.227175-1.503906-15.675781 2.972556-6.301818 8.323605-10.215737 14-14 1.25-.25 2-.4 2.698-.514l.346741-.054296c.924148-.138371 1.888592-.231704 3.955259-.431704.683203-.077344 1.366406-.154688 2.070312-.234375 6.840562-.441327 11.9578 2.108901 17.929688 5.234375-.182207-4.646284-.446088-6.470171-3.875-9.75-1.03125-.7425-2.0625-1.485-3.125-2.25-1.016803-.98291-2.027382-1.973348-3-3zm-8 276c-6.395682 6.556467-13.091897 12.71744-19.992188 18.738281-1.264077 1.098856-2.525768 2.200461-3.785156 3.304688-.755703.66539-1.489179 1.311211-2.222656 1.957031-1.600233 1.397659-3.196749 2.798677-4.783691 4.211426-.562295.501865-1.108052.98897-1.653809 1.476074-3.147584 2.740216-6.158604 4.890353-6.5625 9.3125.731855.276172 1.143524.431519 1.512396.570715l.312164.117798c.36706.138513.770577.290784 1.48794.561487 1.563577.58044 3.125955 1.164114 4.6875 1.75 1.398613.550371 1.398613.550371 2.769531 1.089844.97086.373203 1.913164.735429 2.855469 1.097656 4.869546 1.906406 8.88585 2.21982 14.062012 1.372803.932509-.213081 1.837592-.419895 2.742676-.626709 1.577015-.35927 1.577015-.35927 3.122802-.711426 1.677868-.396257 1.677868-.396257 3.32251-.784668 8.943995-2.081169 17.768963-4.41871 26.5625-7.0625 7.430635-2.250743 14.817381-4.189921 22.4375-5.6875 3.87355-.714816 7.245098-.807598 10.125-3.6875-6.238808-2.430948-12.396726-5.003739-18.500732-7.756104-1.514631-.691292-1.514631-.691292-2.999268-1.368896-8.507823-3.8823-16.777825-8.028376-24.878906-12.70166-3.474602-2.00605-6.82823-3.810855-10.621094-5.17334zm-4.261719-154.046875c-4.006721-.035695-7.531454.212667-11.414062 1.335937-1.969307.602377-3.94858 1.172024-5.929688 1.734376-3.468565.979421-6.932327 1.974857-10.394531 2.976562-.357837 7.037464.624893 13.166494 2.443359 19.96582.189258.691621.37295 1.362901.556641 2.03418 4.790935 17.516406 8.743998 32.012653 25 42 8.262384-13.342064 8.448837-26.580424 6.503906-41.910156-.689922-6.644404-.689922-6.644404-.947265-13.324219-.040508-1.110312-.079825-2.187969-.119141-3.265625-.122361-3.141215-.244644-6.282406-.361572-9.423828-.025816-.705899-.050872-1.391035-.075928-2.076172-1.147469-.013315-1.147469-.013315-2.272217-.026367-1.01643-.006973-2.002966-.01374-2.989502-.020508z" fill-opacity=".94" fill-rule="nonzero"/><path d="m134.476 249c.874679 2.412157 1.161219 3.586125.214844 6.015625-.421524.737344-.843047 1.474688-1.277344 2.234375-2.352309 4.424425-4.213913 8.869615-5.9375 13.5625-.254832.68707-.509663 1.374141-.772217 2.082031-1.177433 3.190803-2.325503 6.387595-3.438721 9.601563-4.500125 12.579211-12.330028 24.044872-21.789062 33.503906-2.625.125-2.625.125-5 0v2c-1.800781 1.191406-1.800781 1.191406-4.3125 2.5625-15.82225 9.169713-26.017166 22.353739-35.541992 37.577881-2.185392 3.471533-4.361583 6.838042-7.145508 9.859619-.99 0-1.98 0-3 0 7.389312-21.356393 25.656156-41.776138 44.941406-53.035156 7.513689-4.826802 10.750548-11.400985 14.871094-19.089844 1.319361-2.425265 2.647095-4.845887 3.976562-7.265625.340872-.621439.681743-1.242878 1.032944-1.883148 3.82364-6.94458 7.826857-13.78009 11.865494-20.601227.339477-.577037.678953-1.154073 1.028717-1.748596.969162-1.646259 1.944717-3.28875 2.920502-4.931092.830841-1.39968.830841-1.39968 1.678467-2.827636 1.735078-2.695771 3.640359-5.150721 5.684814-7.617676z" fill-opacity=".78"/><path d="m210.476 228c.61875.639375 1.2375 1.27875 1.875 1.9375 6.772268 6.716144 13.884851 12.713101 21.5 18.4375 7.297348 5.501373 14.055693 11.268802 20.625 17.625.944883.904922 1.889766 1.809844 2.863281 2.742188 6.206771 6.06083 11.796994 12.425487 17.136719 19.257812.796641.978398.796641.978398 1.609375 1.976562 6.828818 8.627808 13.796119 18.024614 12.914063 29.460938-1.079877 5.286559-3.45192 7.748146-7.648438 10.9375-2.875 1.625-2.875 1.625-4.875 1.625.3125-1.9375.3125-1.9375 1-4 .99-.33 1.98-.66 3-1 3.002421-5.709689 2.856572-11.738866 2-18-4.742662-14.086648-15.026305-25.538589-27-34-2.635078-1.944886-5.255083-3.909758-7.875-5.875-.697383-.522151-1.394766-1.044302-2.113281-1.582275-8.287577-6.222473-16.236387-12.739088-23.886719-19.730225-.535847-.487266-1.071694-.974531-1.623779-1.476562-10.187676-9.437948-10.187676-9.437948-10.501221-16.335938.33-.66.66-1.32 1-2z" fill-opacity=".8"/><path d="m283.476 139c-2.213578 9.710493-7.721923 19.06464-14.3125 26.4375-3.745905 4.191303-5.658472 7.382468-7.058594 12.777344-.628906 1.785156-.628906 1.785156-3.003906 3.910156-3.140353 1.046784-4.539224 1.061837-7.625-.125-2.375-1.5-2.375-1.5-4-4-.767962-7.242935 2.824448-13.730922 6-20h2v2c12.599093-9.391054 12.599093-9.391054 24.433594-19.707031 1.566406-1.292969 1.566406-1.292969 3.566406-1.292969z" fill-opacity=".94"/><path d="m180.476 150c1.65.33 3.3.66 5 1v3h7v41c-4.475313 1.118828-4.997024.687353-9-1-1.929031-.275948-3.868903-.484499-5.8125-.625-.97582-.074766-1.951641-.149531-2.957031-.226562-.736055-.048985-1.47211-.097969-2.230469-.148438 1-2 1-2 3-5 4.902076-8.439811 5.650346-15.545887 5.3125-25.1875-.022559-1.238145-.045117-2.476289-.068359-3.751953-.05833-3.021492-.140128-6.040342-.244141-9.060547z" fill-opacity=".84"/><path d="m298.6635 91.1875c.897188.402187.897188.402187 1.8125.8125.33.99.66 1.98 1 3h3c.366446 1.559666.717609 3.122927 1.0625 4.6875.29584 1.305176.29584 1.305176.597656 2.636719.696099 5.48078-1.087361 8.738484-4.097656 13.238281-2.049346 3.084715-3.99072 6.080683-5.5625 9.4375-3.374627-.547237-5.08235-1.0549-8-3-1.137778-4.453028-1.134371-8.859677-1.125-13.4375-.003867-1.885254-.003867-1.885254-.007812-3.808594.130381-3.685185.542185-7.121079 1.132812-10.753906l1.75-.375c2.27928-.536551 2.27928-.536551 4.25-1.75 2-.875 2-.875 4.1875-.6875z" fill-opacity=".95"/><path d="m156.476 204c.66.33 1.32.66 2 1 .522115 3.132687.640215 5.877119 0 9-1.778901 2.24635-3.761984 4.003957-5.898438 5.910156-6.330728 6.295427-9.834196 16.920765-10.289062 25.714844.061875.78375.12375 1.5675.1875 2.375h2c-1.611668 3.65658-3.864231 6.530331-6.375 9.625-.770859.961641-1.541719 1.923281-2.335938 2.914062-2.077287 2.233261-3.486367 3.373134-6.289062 4.460938.452614-1.439311.91233-2.87639 1.375-4.3125.255234-.800508.510469-1.601016.773438-2.425781.851562-2.261719.851562-2.261719 2.851562-5.261719.389554-1.908035.389554-1.908035.492188-3.992188.06268-.781252.125361-1.562504.189941-2.367431.063647-.830076.127295-1.660152.192871-2.515381 1.600336-16.9703 6.411613-27.891135 19.65625-38.945312.484688-.389297.969375-.778594 1.46875-1.179688z" fill-opacity=".86"/><path d="m245.476 126c4.417739 3.820747 6.278979 7.419989 8 13 .353203 1.089258.706406 2.178516 1.070312 3.300781 2.929688 9.209053 2.929688 9.209053 2.929688 12.699219-1.98.99-1.98.99-4 2-.66-2.31-1.32-4.62-2-7-2.631164 2.525917-5.052243 5.182477-7.4375 7.9375-2.735684 3.156558-5.608576 6.108576-8.5625 9.0625-4.448114 4.703644-6.522478 10.344365-8.9375 16.25-.438765 1.060898-.877529 2.121797-1.32959 3.214844-3.530315 8.694039-6.3889 17.455203-8.73291 26.535156-1.32-.66-2.64-1.32-4-2 3.448082-15.737895 7.875811-30.482324 15-45 1.65.33 3.3.66 5 1 .33-.99.66-1.98 1-3 1.601562-1.507812 1.601562-1.507812 3.625-3.125 5.068949-4.320023 10.303349-9.149981 12.1875-15.699219.228938-3.877631-.582112-6.729435-1.75-10.425781-2.0625-6.627966-2.0625-6.627966-2.0625-8.75z" fill-opacity=".56"/><path d="m194.487719 85.902344c1.135986.004834 1.135986.004834 2.294922.009765 1.178525.012569 1.178525.012569 2.380859.025391.797285.004512 1.59457.009023 2.416016.013672 1.965527.011769 3.931015.029705 5.896484.048828-.66.33-1.32.66-2 1v2c-8.701839 3.73486-17.362142 6.817195-26.519531 9.242676-4.194339 1.112325-8.27187 2.339591-12.355469 3.819824-5.471692 1.883065-11.027017 3.092288-16.6875 4.25-.882202.183772-1.764404.367544-2.67334.556885-.830962.162986-1.661924.325971-2.518066.493896-.745803.147356-1.491607.294712-2.26001.446533-1.986084.190186-1.986084.190186-4.986084-.809814-.33-.99-.66-1.98-1-3 8.75709-3.371889 16.661612-5.884803 26.0625-6.25 5.352448-.371698 7.885405-1.71445 11.859375-5.1875 3.864929-2.905962 8.50984-4.12338 13.078125-5.5625 2.707162-.902387 4.237768-1.118513 7.011719-1.097656z" fill-opacity=".81"/><path d="m218.476 236c4.075629.535328 6.20965 1.650553 9.3125 4.3125 3.694123 3.085744 7.44955 6.001718 11.341309 8.828369 9.10165 6.642129 17.363771 13.913809 25.346191 21.859131.579111.575083 1.158223 1.150166 1.754883 1.742676 11.138711 11.192414 24.42251 25.904102 26.807617 42.069824-.690756 3.914287-2.065287 6.119495-4.5625 9.1875-.99.66-1.98 1.32-3 2 .31582-.551719.631641-1.103437.957031-1.671875 2.311097-5.158853 2.300754-10.916021.344239-16.223633-4.588968-10.073099-11.461445-18.466125-18.890625-26.562988-1.281125-1.399969-2.536864-2.823064-3.789551-4.248535-8.829043-10.029413-18.114389-18.942424-28.812012-26.924805-3.419281-2.585918-6.769635-5.258413-10.121582-7.930664-.664834-.525212-1.329668-1.050425-2.014648-1.591553-1.576961-1.258111-3.12783-2.548813-4.672852-3.845947 0-.33 0-.66 0-1z" fill-opacity=".32"/><path d="m250.476 149c.66.33 1.32.66 2 1 1.601747 6.418269 1.447463 11.410468-1.941406 17.074219-1.730721 3.148506-2.309317 6.429154-3.058594 9.925781-2.511242-2.325224-4.727899-4.792348-6.8125-7.5-.43957-.567187-.879141-1.134375-1.332031-1.71875-.855469-1.78125-.855469-1.78125-.734375-3.71875 1.148662-2.695527 2.755465-4.424974 4.753906-6.5625 2.543889-2.741017 4.933401-5.467599 7.125-8.5z" fill-opacity=".86"/><path d="m245.476 126c4.271517 4.056205 6.282817 7.432432 8 13 .353203 1.089258.706406 2.178516 1.070312 3.300781 2.929688 9.209053 2.929688 9.209053 2.929688 12.699219-1.98.99-1.98.99-4 2-.66-2.31-1.32-4.62-2-7-3.341661 3.207995-6.325551 6.664904-9.316406 10.195312-1.683594 1.804688-1.683594 1.804688-4.683594 3.804688 0-3 0-3 1.355469-4.542969.60457-.542695 1.20914-1.08539 1.832031-1.644531 3.559024-3.435799 7.115921-7.085053 8.8125-11.8125-.229453-2.8765-.229453-2.8765-1-6-.373184-1.805977-.373184-1.805977-.753906-3.648438-.400254-1.844648-.400254-1.844648-.808594-3.726562-.269414-1.245234-.538828-2.490469-.816406-3.773438-.204961-.941015-.409922-1.882031-.621094-2.851562z" fill-opacity=".7"/><path d="m180.476 150c5.259922 7.889884 6.186784 18.770635 5 28-1.25342 4.818136-3.074669 9.413587-5 14-2.64.33-5.28.66-8 1 1-2 1-2 3-5 4.902076-8.439811 5.650346-15.545887 5.3125-25.1875-.022559-1.238145-.045117-2.476289-.068359-3.751953-.05833-3.021492-.140128-6.040342-.244141-9.060547z" fill-opacity=".67"/><path d="m285.476 144h2c-1.764292 4.972096-4.393917 9.434381-7 14-.66 0-1.32 0-2 0-.363516 1.067344-.363516 1.067344-.734375 2.15625-3.328643 7.479174-9.741742 13.992658-16.265625 18.84375 1.394026-6.273117 4.04093-10.745747 7.9375-15.75.442793-.589102.885586-1.178203 1.341797-1.785156 3.347673-4.340501 3.347673-4.340501 6.720703-5.464844l2 1c.2475-.66.495-1.32.75-2 1.56817-3.763609 3.39505-7.371142 5.25-11z" fill-opacity=".8"/><path d="m133.476 107c-.7425.639375-1.485 1.27875-2.25 1.9375-3.459276 3.449504-4.966724 7.589069-6.75 12.0625-.579923 1.355631-1.162895 2.709964-1.75 4.0625-.61875 1.454063-.61875 1.454063-1.25 2.9375-2.921081-4.381622-3.842855-7.737058-3-13 2.798899-4.635677 9.073719-10.96314 15-8z" fill-opacity=".8"/><path d="m140.476 244c.66.33 1.32.66 2 1v3h2c-1.611668 3.65658-3.864231 6.530331-6.375 9.625-.770859.961641-1.541719 1.923281-2.335938 2.914062-2.077287 2.233261-3.486367 3.373134-6.289062 4.460938 1.669179-6.581333 4.439075-11.490652 8.476562-16.933594 1.553234-1.983669 1.553234-1.983669 2.523438-4.066406z" fill-opacity=".89"/><path d="m218.476 236c4.187343.531726 6.370526 1.77791 9.5625 4.5 2.850825 2.387136 5.698616 4.722777 8.71875 6.890625.818756.590713.818756.590713 1.654053 1.193359 1.560528 1.118242 3.126943 2.228256 4.693603 3.337891 2.398451 2.102102 3.083502 2.963719 3.371094 6.078125-4.014732-1.7206-7.244833-4.417384-10.625-7.125-.613755-.487749-1.22751-.975498-1.859863-1.478027-1.245155-.990221-2.489143-1.981911-3.731934-2.975098-1.635525-1.304121-3.279283-2.597898-4.923828-3.890625-.902344-.711563-1.804687-1.423125-2.734375-2.15625-.801797-.631641-1.603594-1.263281-2.429688-1.914062-.559453-.48211-1.118906-.964219-1.695312-1.460938 0-.33 0-.66 0-1z" fill-opacity=".37"/><path d="m246.476 29c4 1 4 1 6.1875 3.5 2.189494 4.227989 2.603703 7.802057 2.8125 12.5-.33-.99-.66-1.98-1-3-2.64-.33-5.28-.66-8-1 0-3.96 0-7.92 0-12z" fill-opacity=".88"/><path d="m180.476 150c5.073206 7.609809 5.472711 17.10603 5 26-1.32.33-2.64.66-4 1-.33-8.91-.66-17.82-1-27z" fill-opacity=".6"/><path d="m305.476 99c3.910539 4.277152 3.910539 4.277152 4.292969 7.367188-.783763 7.043417-6.695296 13.494237-11.292969 18.632812-.746094-1.648438-.746094-1.648438-1-4 1.652344-2.664062 1.652344-2.664062 3.9375-5.625 3.99839-5.660329 5.149133-9.553359 4.0625-16.375z" fill-opacity=".76"/><path d="m217.476 195c1.32.33 2.64.66 4 1-1.65 5.61-3.3 11.22-5 17-1.32-.66-2.64-1.32-4-2 .449117-2.293491.909579-4.584762 1.375-6.875.255234-1.276172.510469-2.552344.773438-3.867188.851562-3.257812.851562-3.257812 2.851562-5.257812z" fill-opacity=".53"/><path d="m175.476 73h2c-.125 2.25-.125 2.25-1 5-3.0625 2.3125-3.0625 2.3125-6 4 .33.66.66 1.32 1 2-2.31 0-4.62 0-7 0 0-.99 0-1.98 0-3-4.95 0-9.9 0-15 0 0-.33 0-.66 0-1 1.827246-.038672 1.827246-.038672 3.691406-.078125 1.623732-.056314 3.247429-.113661 4.871094-.171875.799863-.01418 1.599727-.028359 2.423828-.042969 5.753451-.234834 9.275018-1.394332 14.013672-4.707031.33-.66.66-1.32 1-2z" fill-opacity=".24"/><path d="m134.476 249c.695312 1.585938.695312 1.585938 1 4-1.257812 3.164062-1.257812 3.164062-3.125 6.625-.600703 1.147266-1.201406 2.294531-1.820312 3.476562-2.198837 3.101782-3.442154 3.935929-7.054688 4.898438 1.396811-5.050008 3.599439-8.695944 6.625-12.875.420234-.592969.840469-1.185938 1.273438-1.796875 1.027216-1.447442 2.063468-2.888464 3.101562-4.328125z" fill-opacity=".6"/><path d="m287.476 310h1c.621102 10.662243.621102 10.662243-1.625 15.5-2.587552 2.723739-5.106276 4.65246-8.375 6.5-.66 0-1.32 0-2 0 .3125-1.9375.3125-1.9375 1-4 .99-.33 1.98-.66 3-1 1.2395-2.091385 1.2395-2.091385 2.1875-4.5625.34418-.826289.688359-1.652578 1.042969-2.503906.380918-.957129.380918-.957129.769531-1.933594.99.33 1.98.66 3 1 0-2.97 0-5.94 0-9z" fill-opacity=".7"/><path d="m285.476 141c1 3 1 3-.433594 6.136719-.657766 1.189294-1.326184 2.372745-2.003906 3.550781-.338379.606504-.676758 1.213008-1.025391 1.837891-.836688 1.496611-1.685737 2.986301-2.537109 4.474609-1.32 0-2.64 0-4 0 1.059678-3.53226 2.325651-6.90731 3.875-10.25.306797-.665156.613594-1.330312.929688-2.015625 1.454795-2.110879 2.852164-2.773586 5.195312-3.734375z" fill-opacity=".88"/><g fill-opacity=".15"><path d="m73.476 372 2 1c-7.26 7.26-14.52 14.52-22 22 0-4.146048 2.229972-5.834089 4.9375-8.6875.493469-.529482.986938-1.058965 1.495361-1.604492 4.271145-4.524245 8.80143-8.707166 13.567139-12.708008z"/><path d="m147.476 356c.66.33 1.32.66 2 1-4.62 4.62-9.24 9.24-14 14 0-4.903124 3.701996-7.613414 7-11 1.62541-1.383328 3.273854-2.744621 5-4z"/><path d="m152.476 300c.66.33 1.32.66 2 1-1.285484 1.339295-2.578582 2.671286-3.875 4-.719297.7425-1.438594 1.485-2.179688 2.25-1.945312 1.75-1.945312 1.75-3.945312 1.75-.66 1.98-1.32 3.96-2 6-.99 0-1.98 0-3 0 .835628-4.624097 3.64835-6.776763 7.0625-9.75.567832-.506602 1.135664-1.013203 1.720703-1.535156 1.398783-1.245975 2.806904-2.481454 4.216797-3.714844z"/></g><path d="m302.476 114 3 1c-.762786 1.296435-1.53557 2.586991-2.3125 3.875-.429258.719297-.858516 1.438594-1.300781 2.179688-1.386719 1.945312-1.386719 1.945312-4.386719 3.945312.453361-4.873628 1.708916-7.390424 5-11z" fill-opacity=".72"/><path d="m66.476 339 2 1c-1.068252 1.821429-2.155157 3.631929-3.25 5.4375-.904922 1.514004-.904922 1.514004-1.828125 3.058594-1.921875 2.503906-1.921875 2.503906-4.15625 3.351562-.582656.050274-1.165313.100547-1.765625.152344 1.490764-3.282693 3.386203-5.930774 5.625-8.75.631641-.799219 1.263281-1.598437 1.914062-2.421875.48211-.603281.964219-1.206563 1.460938-1.828125z" fill-opacity=".81"/><path d="m113.476 332 2 1c-3.96 3.96-7.92 7.92-12 12-.66-.33-1.32-.66-2-1 1.245204-1.441656 2.496379-2.878157 3.75-4.3125.696094-.800508 1.392187-1.601016 2.109375-2.425781 1.932078-2.041375 3.840056-3.660648 6.140625-5.261719z" fill-opacity=".17"/><path d="m245.476 126c4.820296 3.856237 4.820296 3.856237 5.332031 7.113281-.017453 1.965281-.16607 3.92838-.332031 5.886719-2.965278-2.445338-3.555822-4.446023-4.1875-8.1875-.158555-.901055-.317109-1.802109-.480469-2.730469-.10957-.68707-.21914-1.37414-.332031-2.082031z" fill-opacity=".67"/><path d="m280.476 148h3c-1.198997 3.083135-2.477005 6.062795-4 9-1.32 0-2.64 0-4 0 .570931-3.311402 1.546048-4.750544 4-7 .33-.66.66-1.32 1-2z" fill-opacity=".86"/><path d="m267.476 169c.99.66 1.98 1.32 3 2-2.64 2.64-5.28 5.28-8 8-.33-.99-.66-1.98-1-3 1.214844-1.824219 1.214844-1.824219 2.9375-3.6875.565898-.622617 1.131797-1.245234 1.714844-1.886719.444726-.470508.889453-.941015 1.347656-1.425781z" fill-opacity=".76"/><path d="m133.476 107c-4.394531 4.003906-4.394531 4.003906-6 5-.99-.33-1.98-.66-3-1-2.694333 1.871975-2.694333 1.871975-5 4 1.830689-4.826363 5.19967-6.162637 9.6875-8.25 2.3125-.75 2.3125-.75 4.3125.25z" fill-opacity=".7"/><path d="m180.476 75c.33.99.66 1.98 1 3-8.261959 5.740319-8.261959 5.740319-13 5 6.590909-5 6.590909-5 11-5 .33-.99.66-1.98 1-3z" fill-opacity=".84"/><path d="m43.476 419h6c-.33.99-.66 1.98-1 3-.99 0-1.98 0-3 0l3 5c-3.161158-1.369835-3.992709-1.989064-6-5z" fill-opacity=".64"/><path d="m135.476 105c.99.33 1.98.66 3 1v3c-2.956645 1.478323-5.742297 1.060328-9 1 3.75-3.875 3.75-3.875 6-5z" fill-opacity=".89"/><path d="m56.476 350 4 2c-1.1875 2.4375-1.1875 2.4375-3 5-2.6875.8125-2.6875.8125-5 1 1.124517-2.971939 2.222938-5.334407 4-8z" fill-opacity=".72"/><path d="m184.476 90c-1.6189 1.03048-3.245325 2.049147-4.875 3.0625-.904922.568477-1.809844 1.136953-2.742188 1.722656-.786328.400899-1.572656.801797-2.382812 1.214844-.66-.33-1.32-.66-2-1 3.904527-4.183422 6.276577-6.657408 12-5z" fill-opacity=".77"/><path d="m235.476 163 3 1c-3.487206 4.359008-6.727609 4.945522-12 6 .33-1.32.66-2.64 1-4 1.65.33 3.3.66 5 1 .33-.99.66-1.98 1-3 .66-.33 1.32-.66 2-1z" fill-opacity=".58"/><path d="m296.476 91c2 .25 2 .25 4 1 .33.99.66 1.98 1 3h3c.33 1.32.66 2.64 1 4-2.4375-.75-2.4375-.75-5-2-.8125-2.125-.8125-2.125-1-4-1.32-.33-2.64-.66-4-1 .33-.33.66-.66 1-1z" fill-opacity=".67"/><path d="m134.476 249c1.191563 4.766252.341595 5.878794-2 10-1.32-.66-2.64-1.32-4-2z" fill-opacity=".58"/><path d="m253.476 148h2c.33 2.64.66 5.28 1 8-.99.33-1.98.66-3 1-.878906-6.152344-.878906-6.152344-1-8z" fill-opacity=".63"/><path d="m186.476 0c4.873628.453361 7.390424 1.708916 11 5-1.765625.648438-1.765625.648438-4 1-1.921875-.960938-1.921875-.960938-3.75-2.375-.613594-.461484-1.227188-.922969-1.859375-1.398438-.458906-.404765-.917812-.809531-1.390625-1.226562 0-.33 0-.66 0-1z" fill-opacity=".76"/><path d="m45.476 404c1.343461 4.030384 1.266769 7.798384 1 12-1.5 2-1.5 2-3 3 0-2.880305.424794-5.187881 1-8 .344033-2.33178.679492-4.66487 1-7z" fill-opacity=".15"/><path d="m152.476 208c0 3 0 3-1.53125 4.824219-.649688.614883-1.299375 1.229765-1.96875 1.863281-.649688.622617-1.299375 1.245234-1.96875 1.886719-.505312.470508-1.010625.941015-1.53125 1.425781-.66-.33-1.32-.66-2-1 2.789995-3.487493 5.252358-6.501572 9-9z" fill-opacity=".82"/><path d="m218.476 236c4.832563.41422 6.826792 2.46414 10 6-4.430905-1.208429-6.981128-2.516686-10-6z" fill-opacity=".31"/><path d="m179.476 141c2 1.1875 2 1.1875 4 3 .25 2.6875.25 2.6875 0 5-.99.33-1.98.66-3 1-.33-2.97-.66-5.94-1-9z" fill-opacity=".83"/><path d="m294.476 126h3c-1.875 4.75-1.875 4.75-3 7-.66 0-1.32 0-2 0 .875-5.875.875-5.875 2-7z" fill-opacity=".67"/><path d="m177.476 73c-.25 2.375-.25 2.375-1 5-2.0625 1.3125-2.0625 1.3125-4 2-.33-.99-.66-1.98-1-3 3.75-4 3.75-4 6-4z" fill-opacity=".28"/><path d="m210.476 228c2.623865 3.061176 3 3.731731 3 8-.99 0-1.98 0-3 0-1.125-5.75-1.125-5.75 0-8z" fill-opacity=".76"/><path d="m305.476 99c3.938462 4.307692 3.938462 4.307692 4.25 7.8125-.0825.721875-.165 1.44375-.25 2.1875-.33-.99-.66-1.98-1-3-.99-.33-1.98-.66-3-1 0-1.98 0-3.96 0-6z" fill-opacity=".52"/><path d="m153.476 67h12c-.33.66-.66 1.32-1 2-2.5625.625-2.5625.625-5 1 0-.66 0-1.32 0-2-1.98 0-3.96 0-6 0 0-.33 0-.66 0-1z" fill-opacity=".31"/><path d="m147.476 64h8v3c-2.343121-.255613-4.678434-.592708-7-1-.33-.66-.66-1.32-1-2z" fill-opacity=".81"/><path d="m284.476 300h3v6c-.66 0-1.32 0-2 0-.66-1.65-1.32-3.3-2-5z" fill-opacity=".36"/><path d="m252.476 65h2v2h3c.33.99.66 1.98 1 3-2.31-.33-4.62-.66-7-1 .33-1.32.66-2.64 1-4z" fill-opacity=".83"/><path d="m143.476 101 2 1c-.639375.103125-1.27875.20625-1.9375.3125-1.020937.340312-1.020937.340312-2.0625.6875-.33.99-.66 1.98-1 3-1.32-.33-2.64-.66-4-1 2.385734-1.892134 4.071753-3.023918 7-4z" fill-opacity=".69"/></g></svg>