<svg height="461" viewBox="0 0 310 461" width="310" xmlns="http://www.w3.org/2000/svg"><path d="m186.476 0c5.451381.398882 9.146148 2.214444 13 6 2.545667 4.5822 3.470338 8.809312 4 14 .496289-.337734.992578-.675469 1.503906-1.023438.679336-.446015 1.358672-.892031 2.058594-1.351562.661289-.440859 1.322578-.881719 2.003906-1.335938 5.817911-3.081718 11.497585-3.630346 17.933594-3.601562 1.080879-.02417 1.080879-.02417 2.183594-.048828 6.316538-.005711 11.591877 1.646702 16.691406 5.548828 2.90335 3.110732 3.091296 4.628745 3.285156 8.777344.231785 1.3880467.608806 2.3448913 1.175828 3.2600558.741038.4345536 1.287508 1.0590914 2.351516 2.2751002.630137 1.2168169 1.113229 2.3794702 1.486699 3.5303393 1.175113 2.7277528 1.413181 5.5930464 1.325801 8.9696607-.234609.676758-.469219 1.353516-.710938 2.050781-.09539.643242-.190781 1.286485-.289062 1.949219 1.457142 1.87486 1.457142 1.87486 3.5 3.5 2.03125 1.71875 2.03125 1.71875 3.5 3.5-.21875 2.027344-.21875 2.027344-1 4-1.0963 3.3574206-1.725061 6.4904718-2.08126 9.7578417.027121.0797402.054159.160854.08126.2421583l-.10558-.0148423c-.188077 1.7915943-.295878 3.6259043-.355358 5.5617173-.539062 2.453125-.539062 2.453125-2.378906 4.265625-5.226054 2.872912-12.427767.915422-18.160156.1875-5.1858 11.284134-5.1858 11.284134-4.204346 23.329834 1.129635 2.525715 2.354017 4.971364 3.641846 7.420166.674099 1.321611.674099 1.321611 1.361816 2.669922 2.710513 5.175738 5.746824 9.68836 9.22411 14.212493 2.309996 1.901023 2.769421 2.544155 3.096667 4.220223 2.447877 4.083529 3.66049 8.46507 4.879907 13.147362.414849 1.4172.831174 2.83397 1.25 4.25.2475.9075.495 1.815.75 2.75 10.457056-4.566853 19.28549-13.342798 25-23 .502734-.64582 1.005469-1.291641 1.523438-1.957031 2.286403-3.202229 3.258013-6.552525 3.61962-10.039077-.277446-2.782715-.273918-5.578582-.268058-8.441392-.00091-.443589-.001606-.782804-.002189-1.067259l-.000804-.391813c-.000372-.181573-.00071-.346297-.001056-.515102l-.000717-.349254c-.000753-.3671-.001654-.80634-.003046-1.485166.06584-1.860949.203444-3.658328.399601-5.4495971.162826-1.7486815.413282-3.4962256.733211-5.3043089l1.75-.375c2.27928-.536551 2.27928-.536551 4.25-1.75.876547-.3834894 1.368927-.5989055 1.829665-.7041257.055266-.0558049.112656-.1131957.170335-.1708743.264021.0330026.493188.0616485.696704.0882382l.151096.0030076c.347261.011188.769048.0473412 1.3397.0962542.21885.0981052.384317.1722797.522706.2343162l.544152.24393.202459.0907574c.098087.0439704.209817.094056.344378.1543769l.198805.0891195c.33.99.66 1.98 1 3h3c.846603 1.387825 1.676753 2.785694 2.5 4.1875.696094 1.165957.696094 1.165957 1.40625 2.355469.324702.729419.581043 1.377597.775751 1.9908.354762.763277.448247 1.518632.610968 2.833419l-.048739.380409c.001912.0215.003835.043134.00577.064903-.052352.458081-.104704.916162-.157695 1.379833-.024994.257723-.055962.526556-.092305.807667-.395381.857337-.653237 1.41647-.886663 1.885174l-.130724.320786c-1.587752 3.772389-4.314095 7.305424-7.042824 10.472172-.4535.622952-.765165 1.003565-1.228435 1.40553-.307568.346443-.612084.687856-.91277 1.024125-1.336009 1.918061-2.430961 3.940278-3.462952 6.051889-.185533.443995-.34262.798943-.509186 1.155554l-.105958.224482c-.197808.414928-.418659.856629-.720488 1.460288h-.024l-.569589 1.168662c-2.738469 5.553268-5.659428 10.972321-8.781411 16.331338-.428855.748059-.85771 1.496118-1.299561 2.266846-.839426 1.424497-1.730955 2.818009-2.640466 4.199241l-.684973 1.033913h-2c-.363516 1.067344-.363516 1.067344-.734375 2.15625-.195661.439633-.401979.875929-.618351 1.308747-.038021.073383-.075138.147732-.112583.222092-.027745.055505-.055915.110447-.084245.165331-3.421095 6.7091-9.496782 13.487885-15.651642 18.168853-.374734.494033-.968349 1.025162-2.173804 2.103727-1.561604.520534-2.692578.785945-3.814491.775308-.689221.094196-1.437134.096134-2.810509.099692-1.019531-.790179-1.60212-1.241709-2.106915-1.708819l-.097655-.065013c-1.23999-.833183-1.506637-1.243409-2.79543-3.226168l-.003-.028-.323481-.388261c-.510463-.612211-1.024352-1.228531-1.548519-1.857177-.814554-1.045144-1.618865-2.091314-2.411686-3.143623-.868921-.99432-1.707541-2.020099-2.525814-3.082939-.43957-.567187-.879141-1.134375-1.332031-1.71875-.330077-.687283-.532796-1.109383-.650341-1.479913-.068959-.099595-.137103-.200396-.205128-.301337-2.337785.967359-4.008512 2.251496-5.328414 3.823028-1.15595 1.602163-2.123923 3.28602-2.992148 5.029873-.342611.754914-.677346 1.543861-1.019282 2.365849-.423457 1.015781-.846914 2.031562-1.283203 3.078125-.433769 1.057031-.867539 2.114062-1.314453 3.203125-.644854 1.539141-.644854 1.539141-1.302734 3.109375-.213194.457161-.418478.897359-.616245 1.321895l.589389-1.466426c-1.679997 4.137297-3.207875 8.289795-4.600569 12.484615-.74063 2.518723-1.483222 5.043538-2.232091 7.58969-.249039 1.561617-.517041 3.365136-.83775 5.523351-.078534 4.947637-1.78687 8.097551-4.066406 12.421875-1.165452 2.398545-1.165452 2.398545-.816406 4.652344.339988.772258.741557 1.529239 1.196739 2.271574 1.628374 1.579248 3.277284 3.118711 4.948475 4.62514l-.324902-.033433c1.512288.129625 2.746619.419433 3.826107.864835 1.219947.434674 2.298505 1.019346 3.422786 1.815522.739209.517689 1.493078 1.119902 2.313607 1.819643.670117.561122 1.340066 1.119398 2.012126 1.673319 2.182046 1.771933 4.391095 3.490168 6.641601 5.171869.022079.014597.043546.030021.065023.045437.818756.590713.818756.590713 1.654053 1.193359 1.560528 1.118242 3.126943 2.228256 4.693603 3.337891.53698.470632.988076.879084 1.368056 1.26456 7.039194 5.520481 13.610797 11.451032 20.003038 17.813565.579111.575083 1.158223 1.150166 1.754883 1.742676 11.138711 11.192414 24.42251 25.904102 26.807617 42.069824-.690756 3.914287-2.065287 6.119495-4.5625 9.1875l-.991111.660741-.354098.235652c-.089124.19294-.182344.393721-.279791.603607-.644901.678843-1.285526 1.308302-1.934552 1.899428-.854751.917656-1.833638 1.819613-2.940448 2.788072-.680768.35254-1.367747.682463-2.060417.991426-.119224.062436-.230145.121365-.334997.175717-.358501.2169-.726527.431671-1.104586.645357l-.543051.001663c-7.850753 3.023711-16.349551 3.628904-24.769449 4.123337-1.107949.073477-2.215898.146953-3.357422.222656-2.271694.149609-4.543767.293567-6.816162.432129-2.385685.14951-4.77064.311058-7.154785.483399-7.717895.555215-15.407684.871565-23.143555 1.027343-12.943567.260767-25.546323.823851-38.215576 3.709473-1.126641.250078-2.253281.500156-3.414062.757812-6.009269 1.36347-6.009269 1.36347-10.585938 5.242188-.2475.680625-.495 1.36125-.75 2.0625-1.25 1.9375-1.25 1.9375-4.410156 2.730469-2.831407.748295-5.006381 1.992848-7.0948 3.579757.414023.206808.830595.415094 1.254956.627274l-1.980408 1.980408-9.987755 9.987755c-.674694.674694-1.351837 1.351837-2.031837 2.031837 0-.508318.039789-.993067.114791-1.457445-1.306647 2.287832-2.342375 4.79322-3.177291 7.644945-1.924402 6.566094-1.924402 6.566094-4.9375 8.8125-2.5.125-2.5.125-5-1-6.482672-12.502298-5.308566-27.718557-2.920332-42.070046l.220278-1.302199.219369-1.259864c.812861-4.609556 1.71267-9.106022 2.480685-13.367891-2.79747 1.847462-5.414485 3.663072-7.883636 5.558475l.883636.441525c-3.96 3.96-7.92 7.92-12 12-.377805-.188902-.755609-.377805-1.137165-.568582-.570085.714407-1.133133 1.452656-1.689983 2.215555-7.2739154 9.751505-16.3216409 18.458426-25.8929549 25.993985l.7201029.359042-2.4203018 2.420302-17.0942112 17.094211c-.8259808.825981-1.6543759 1.654376-2.485487 2.485487 0-.702373.063998-1.334204.1834742-1.913109-1.4576696 1.890121-2.8527048 3.856465-4.1834742 5.913109-.452461.635508-.904922 1.271016-1.371094 1.925781-1.0800647 1.625703-1.7683051 3.112262-2.1818619 4.610102.8736844 3.465651.7855981 6.799999.5529559 10.464117-.977104 1.302805-1.3177198 1.75696-1.8510676 2.191684l-1.1489324-.191684c1.98.33 3.96.66 6 1-.22.66-.44 1.32-.662963 1.988889l-.337037 1.011111h-3l3 5c-1.4085958-.610391-2.354637-1.071747-3.1482591-1.662081-1.6699593-.991588-3.2355212-2.098591-4.8517409-3.337919-.087513 3.228994-.140561 6.457681-.1875 9.6875-.025137.912012-.050273 1.824023-.076172 2.763672-.0557 5.105821.086533 8.320981 3.263672 12.548828v2l3.375.875c3.405303 1.056818 3.611685 1.120868 5.28215 2.782707l.34285.342293c.125 3.625.125 3.625 0 7-21.458189.665179-21.458189.665179-29.75-5.5625-4.065445-3.823565-5.972793-8.423763-8.25-13.4375-.95217-1.92461-1.922405-3.839429-2.894775-5.753906-1.390841-2.745859-2.752807-5.505699-4.116455-8.265137-.927812-1.85883-1.879481-3.703417-2.836426-5.547363-3.351183-6.710287-5.069688-11.907974-4.152344-19.433594.804375-.12375 1.60875-.2475 2.4375-.375l2.5625-.625 1-2c2.741466-1.082467 5.457883-2.067756 8.25-3 1.526348-.519936 3.052397-1.040748 4.578125-1.5625 1.085713-.369316 1.085713-.369316 2.193359-.746094 2.357332-.823786 4.667328-1.746687 6.978516-2.691406.99-.33 1.98-.66 3-1 .721098-1.304699 1.374443-2.646892 2-4 1.398896-2.118577 2.81568-4.218244 4.25-6.3125 3.7972837-5.604228 7.3620266-11.330847 10.8674981-17.112303 7.3060555-16.8469 20.9898364-32.653704 36.0590645-43.257901 2.1630567-1.544826 4.4257341-3.009539 6.7999994-4.387609.8634085-.551064 1.6701762-1.126136 2.4281594-1.724062 5.616486-4.456995 8.5605226-10.130853 12.0326566-16.629453.124604-.233162.249451-.466672.375122-.701172 1.319361-2.425265 2.647095-4.845887 3.976562-7.265625.340872-.621439.681743-1.242878 1.032944-1.883148 3.82364-6.94458 7.826857-13.78009 11.865494-20.601227.339477-.577037.678953-1.154073 1.028717-1.748596.969162-1.646259 1.944717-3.28875 2.920502-4.931092l.35318-.594987c.313275-.527759.476613-.802927.727743-1.225994l.031838-.053637c.105242-.177296.210877-.355254.317016-.534061l-.066496-.036633.481-.641.021329-.032042c1.034305-1.606228 1.39365-2.15071 2.194836-3.143419.791588-1.06713 1.610101-2.110336 2.45404-3.14941.882731-1.339278 1.308595-2.424938 1.581719-4.056714l-.050795.662966c.063647-.830076.127295-1.660152.192871-2.515381 1.031822-10.941656 3.398454-19.368509 8.499651-26.937725-.123113-.061506-.248538-.124219-.374651-.187275 1.901983-2.377478 3.651704-4.534944 5.760161-6.459016 1.719913-1.800663 3.635915-3.579247 5.771089-5.361296l.40275-.324688-.211459-.461539c-.185388-.405267-.37202-.813253-.562385-1.229399-1.891532-4.375431-3.321529-8.057621-3.410156-12.851562-.766081-10.929415-9.551429-21.693834-15.028076-30.897949-4.301686-7.285635-8.111999-14.765779-11.721924-22.414551-.304863-.636313-.609727-1.272627-.923828-1.928223-6.373498-13.418072-6.380319-13.432431-5.080354-20.050485.001917-.007135.003048-.014212.004182-.021292l.014-.025.164279-.300916c1.26466-2.275154 2.523822-3.755335 4.062134-4.866988 2.362033-2.16479 5.225814-3.778084 8.140679-3.546046.239261-.043363.445229-.056069.648895-.037082l.993451-.290374c1.487744-.466629 2.804719-.964278 4.102794-1.556658-.04231-.125169-.084194-.250823-.126232-.376936.965276-.371677 1.920194-.732916 2.867898-1.081993 1.213628-.762411 2.473626-1.365182 4.132102-1.918007l.119114.059368c6.093079-2.311607 12.691749-3.1252822 19.193386-3.371868 1.554883-.0976889 2.865571-.2885144 4.041654-.5973227 2.769649-.749063 4.825642-2.1312379 7.567721-4.5276773.587026-.4413728 1.192045-.8437923 1.812056-1.2139518 1.081151-.8494899 2.178992-1.4454078 3.446701-1.7118408 2.172125-.9041705 4.448036-1.5908758 6.721947-2.2945972l1.097421-.3421102c.99-.33 1.98-.66 3-1 1.138896-.0680093 2.280415-.0983649 3.421536-.0995816.036123.0011041.074482.000922.113076.0007964l.477107.0011292c1.135986.004834 1.135986.004834 2.294922.009765 1.178525.012569 1.178525.012569 2.380859.025391.797285.004512 1.59457.009023 2.416016.013672 1.965527.011769 3.931015.029705 5.896484.048828.33-2.31.66-4.62 1-7-.496289-.340313-.992578-.680625-1.503906-1.03125-7.384358-5.268536-14.91107-11.590693-16.496094-20.96875-.224513-5.015817-.176345-9.98397 0-15h-2v6c-1.65.66-3.3 1.32-5 2 .33.928125.66 1.85625 1 2.8125 2.014002 7.172165 1.875406 15.17715-.753906 22.171875-.665624 1.0766836-1.432798 2.0385486-2.282597 2.9039202.011207.0358175.023848.0737404.036503.1117048-.177042.1230068-.35029.2433778-.519873.3611621-1.825192 1.7231108-3.993778 3.0458268-6.334116 4.1311433-.387594.198022-.741404.3560813-1.077532.4792701-.022913.0090987-.04569.0187712-.068479.0284245l-.015859.001884c-.798669.2812822-1.502973.3650568-2.31803.3302165l.333889.6678995h-7v-3h-15l.00092-.8976862c-1.667029-.0287393-3.333868-.0629489-5.00092-.1023138-.33-.66-.66-1.32-1-2 .258261-.043043.494064-.082344.711355-.118559l.600281-.100047.230806-.0384677.420343-.0700571c1.256031-.2093384 1.875496-.3125826 4.037215-.6728692-2.64-1.32-5.28-2.64-8-4v-2c1.073789-.048984 2.147578-.097969 3.253906-.148438 1.43622-.075096 2.872417-.150641 4.308594-.226562.704473-.030938 1.408945-.061875 2.134766-.09375 2.92623-.1618195 5.611879-.5378387 8.303064-1.1471933l-.00033-1.3840567h-6l.00021-.7646537c-1.360282-.224645-2.488821-.5199868-3.638901-1.0046072-.454142-.0743555-.907987-.1512091-1.361309-.2307391l-.293133-.5859746c-.230126-.1291187-.46519-.2668656-.706867-.4140254v-1c.675469-.132773 1.350937-.265547 2.046875-.402344.892031-.176601 1.784063-.353203 2.703125-.535156.881719-.174023 1.763438-.348047 2.671875-.527344 2.210476-.458841 4.393246-.968517 6.578125-1.535156.33-1.32.66-2.64 1-4-1.206563.7425-1.206563.7425-2.4375 1.5-5.63772 2.373777-10.86093 2.419677-16.5625.125-3-1.625-3-1.625-4-3.625 1.428926.087012 1.428926.087012 2.886719.175781 7.604216.44544 7.604216.44544 14.488281-2.238281 2.040492-3.688582 2.219559-5.775588 1.625-9.9375-.740566-1.150488-.740566-1.150488-1.496094-2.324219-2.757438-4.906091-2.319881-10.227175-1.503906-15.675781 2.972556-6.301818 8.323605-10.215737 14-14 1.25-.25 2-.4 2.698-.514l.346741-.054296c.924148-.138371 1.888592-.231704 3.955259-.431704.683203-.077344 1.366406-.154688 2.070312-.234375 6.840562-.441327 11.9578 2.108901 17.929688 5.234375-.170181-4.3396134-.41161-6.21710979-3.236519-9.1183582l.236519.1183582c-1.921875-.960938-1.921875-.960938-3.75-2.375-.613594-.461484-1.227188-.922969-1.859375-1.398438-.458906-.404765-.917812-.809531-1.390625-1.226562zm-8 276c-6.395682 6.556467-13.091897 12.71744-19.992188 18.738281-1.264077 1.098856-2.525768 2.200461-3.785156 3.304688-.755703.66539-1.489179 1.311211-2.222656 1.957031-1.600233 1.397659-3.196749 2.798677-4.783691 4.211426-.514579.459277-1.015307.906193-1.514861 1.352059.119589-.103578.239942-.208015.361052-.313485.567832-.506602 1.135664-1.013203 1.720703-1.535156 1.398783-1.245975 2.806904-2.481454 4.216797-3.714844.66.33 1.32.66 2 1-1.285484 1.339295-2.578582 2.671286-3.875 4-.719297.7425-1.438594 1.485-2.179688 2.25-1.945312 1.75-1.945312 1.75-3.945312 1.75-.66 1.98-1.32 3.96-2 6h-3c.730247-4.040955 2.970372-6.194516 5.802284-8.657688-2.857354 2.448054-5.431054 4.593187-5.802284 8.657688.731855.276172 1.143524.431519 1.512396.570715l.312164.117798c.36706.138513.770577.290784 1.48794.561487 1.563577.58044 3.125955 1.164114 4.6875 1.75 1.398613.550371 1.398613.550371 2.769531 1.089844.97086.373203 1.913164.735429 2.855469 1.097656 4.869546 1.906406 8.88585 2.21982 14.062012 1.372803.932509-.213081 1.837592-.419895 2.742676-.626709 1.577015-.35927 1.577015-.35927 3.122802-.711426 1.677868-.396257 1.677868-.396257 3.32251-.784668 8.943995-2.081169 17.768963-4.41871 26.5625-7.0625 7.430635-2.250743 14.817381-4.189921 22.4375-5.6875 3.87355-.714816 7.245098-.807598 10.125-3.6875-6.238808-2.430948-12.396726-5.003739-18.500732-7.756104-1.514631-.691292-1.514631-.691292-2.999268-1.368896-8.507823-3.8823-16.777825-8.028376-24.878906-12.70166-3.474602-2.00605-6.82823-3.810855-10.621094-5.17334zm-15.675781-152.710938c-1.969307.602377-3.94858 1.172024-5.929688 1.734376-3.468565.979421-6.932327 1.974857-10.394531 2.976562-.357837 7.037464.624893 13.166494 2.443359 19.96582.189258.691621.37295 1.362901.556641 2.03418 4.679111 17.10756 8.559007 31.334301 23.881659 41.293314l.030341-.053314c.408-.72.888-1.44 2.088-3.24 4.902076-8.439811 5.650346-15.545887 5.3125-25.1875-.022559-1.238145-.045117-2.476289-.068359-3.751953-.05833-3.021492-.140128-6.040342-.244141-9.060547l.50543.101857c-.000508-.004004-.001016-.008008-.001524-.012013l-.024769-.249556c-.159048.053016-.318722.10624-.479137.159712-.33-2.97-.66-5.94-1-9 .173913.103261.332703.197543.479001.284818l.271992.162946c-.059568-1.183576-.114603-2.612115-.194352-4.682139-.040508-1.110312-.079825-2.187969-.119141-3.265625-.122361-3.141215-.244644-6.282406-.361572-9.423828-.025816-.705899-.050872-1.391035-.075928-2.076172-1.147469-.013315-1.147469-.013315-2.272217-.026367-1.01643-.006973-2.002966-.01374-2.989502-.020508-4.006721-.035695-7.531454.212667-11.414062 1.335937z" fill="#f5f5f5" fill-opacity=".94"/></svg>