<svg height="141" viewBox="0 0 207 141" width="207" xmlns="http://www.w3.org/2000/svg"><g fill-rule="evenodd" transform="translate(-542 -313)"><path d="m737.477539 324.9375c6.914356 6.70323 10.953705 13.548057 11.180908 23.254395-.011037.823549-.022075 1.647099-.033447 2.495605-.009104.869956-.018208 1.739912-.027588 2.63623-.417413 11.824887-4.935049 21.08151-13.24585 29.559083-14.828071 13.35019-31.479803 14.434037-50.476562 14.242187-1.736974-.01005-3.473954-.019172-5.210938-.027344-4.221495-.021856-8.442715-.056276-12.664062-.097656-.185625 1.825313-.185625 1.825313-.375 3.6875-.370314 3.641417-1.176474 5.691184-2.625 9.3125h-33c1.124407-10.119662 18.130418-87.391254 21-96 7.937713-.140313 15.87489-.246274 23.813545-.310873 3.688092-.031038 7.375323-.072987 11.06292-.141764 36.909409-.670284 36.922104-.244503 50.601074 11.390137zm-30.477539 22.0625c-4.62676-4.162586-8.216766-4.432766-14.347656-4.351562-1.029297.034531-2.028321.068046-3.027344.101562-3.542728.062545-7.083614.133182-10.625.25-.480282 2.136041-.954361 4.273231-1.421875 6.412109-.196562.901133-.387344 1.775762-.578125 2.650391-1.295657 5.756043-2.256684 11.025741-2 16.9375 2.304688.020634 4.60931.037069 6.914062.048828.964219.004649 1.900079.00916 2.835938.013672.948281.008633 1.868672.017012 2.789062.025391.916407.00332 1.80586.006543 2.695313.009765 4.791723.030716 7.972964-.722185 12.328125-2.785156 3.624961-2.170309 5.100696-4.223452 6.4375-8.3125.508396-4.321364.489715-7.265428-2-11z"/><path d="m574 314h35c-.672251 6.050255-22.542234 104.253406-23 107h75c-1.112485 11.124854-3.624964 22.074836-6 33-37.29 0-74.58 0-113 0 1.122322-8.978574 30.831156-134.843334 32-140z"/></g></svg>